<svg id="Group_902" data-name="Group 902" xmlns="http://www.w3.org/2000/svg" xmlns:xlink="http://www.w3.org/1999/xlink" viewBox="0 0 221.772 171.089">
  <defs>
    <style>
      .cls-1 {
        fill: #e9322b;
      }

      .cls-2 {
        clip-path: url(#clip-path);
      }

      .cls-3 {
        fill: #fff;
      }
    </style>
    <clipPath id="clip-path">
      <rect id="Rectangle_749" data-name="Rectangle 749" width="203.811" height="153.162"/>
    </clipPath>
  </defs>
  <rect id="Rectangle_748" data-name="Rectangle 748" class="cls-1" width="221.772" height="171.089"/>
  <g id="Group_901" data-name="Group 901" transform="translate(8.964 8.964)">
    <g id="Group_899" data-name="Group 899" class="cls-2">
      <path id="Path_827" data-name="Path 827" class="cls-3" d="M45.446,14.122A2.09,2.09,0,0,0,43.963,12a16.24,16.24,0,0,0-2.763-.607c-1.348-.236-1.112-1.55.1-1.55.809,0,4.583.3,9.065.3,2.595,0,6.335-.1,8.155-.236,1.146-.067,1.247,1.146.438,1.348-.809.236-4.549,1.146-11.222,7.245C40.829,24.838,31.9,34.24,31.9,34.24S51.916,58.1,55.421,60.93a13.846,13.846,0,0,0,8.829,3.4c.674.034.91,1.348,0,1.348H48.614S29.237,42.261,26.069,40.1c-.573-.337-1.921-.809-2.056.809-.1,1.483-.236,13.884.1,16.614S25.6,64.2,32.034,64.2c.809,0,1.247,1.516.1,1.483-3.808-.2-6.672-.2-11.424-.2-4.078,0-9.773.2-10.581.2-1.348,0-1.348-1.247-.1-1.348,1.82-.1,6.133-.337,6.369-7.245.3-7.144.1-37.2,0-40.506-.034-2.258-1.955-5.324-6.942-5.324-.809,0-.674-1.348.236-1.348h21.3c.809,0,1.247,1.314-.1,1.449-1.348.1-6.538.27-6.672,7.178-.2,6.908-.2,17.625-.2,18.1,0,.573.236,1.146,1.011.573,2.46-1.651,9.739-8.8,15.2-14.929a32.215,32.215,0,0,0,4.65-6.5,2.338,2.338,0,0,0,.573-1.651M72.27,33.263V14.055c0-2.393,1.685-3.067,3.5-3.168.674,0,.809-.91-.1-.91H64.351c-.775,0-.91.876-.1.91,1.685.2,3.741,1.011,3.741,3.168V33.263c0,2.157-.809,3.5-3.269,3.5-.977,0-.741.842,0,.842H75.842c.573,0,.708-.842-.236-.842-2.426,0-3.336-1.584-3.336-3.5M86.9,49.876a.406.406,0,0,0,.438-.337l1.82-5.763c.1-.337-.034-.573-.337-.573a.469.469,0,0,0-.371.168,1.92,1.92,0,0,1-1.078.674.825.825,0,0,1-.539-.27,7.171,7.171,0,0,0-5.493-2.292c-5.8,0-10.75,3.774-13.715,8.425a16.093,16.093,0,0,0-2.7,8.762c0,4.752,3.3,7.447,7.582,7.447a13.837,13.837,0,0,0,6-1.314,5.6,5.6,0,0,1,1.584-.505c.64,0,.674.944.741,1.82a.4.4,0,0,0,.438.438.44.44,0,0,0,.438-.337l2.426-6.908c.2-.573-.034-.809-.27-.809-.337,0-.539.135-.809.607-1.112,1.685-1.853,2.8-5.661,4.65a12.415,12.415,0,0,1-4.92,1.213c-3.2,0-4.448-2.46-4.448-5.56,0-4.078,1.921-8.357,4.886-11.9,1.887-2.325,4.752-4.987,8.121-4.987,3.2,0,5.594,2.393,5.257,6.807a.59.59,0,0,0,.607.539M79.549,9.943c-.809,0-.809.809-.337.91.876.2,2.7.337,2.7,2.73.034,5.628.034,13.008-.2,19.006-.034,2.157-.674,3.976-2.527,4.179-.674.034-.674.842-.236.842H87.1a.424.424,0,0,0,.034-.842c-1.247-.236-3.269-.236-3.437-4.179-.2-3.842-.3-18.433-.3-18.433l20.455,22.78h1.685s0-21.3.1-22.915c.1-1.887.741-2.9,2.8-3.067,1.011-.067.842-.977.168-.977h-8.324c-.977,0-.741.91-.3.91.91.1,3.741.438,3.842,3.168.1,3.976.3,16.31.3,16.31L85.918,9.977H79.549Zm18.2,37.675c3.639,0,4.313,3.168,4.313,6.133,0,4.684-4.313,12.165-9.5,12.165-3.269,0-4.549-2.629-4.549-5.358,0-6.571,4.65-12.94,9.739-12.94m.775,1.045c-3.572,0-8.728,8.492-8.728,13.682,0,1.348.607,2.393,2.056,2.393,3.5,0,8.762-8.694,8.762-13.244,0-1.382-.4-2.831-2.089-2.831M111.968,43a1.657,1.657,0,0,1-.135.573c-3.067,6.639-6.066,13.244-9.031,19.916a4.02,4.02,0,0,0-.438,1.483,1,1,0,0,0,1.011,1.045,2.17,2.17,0,0,0,.944-.236,11.277,11.277,0,0,0,4.415-4.044.3.3,0,0,0-.438-.4,13.878,13.878,0,0,1-2.831,2.629c-.236.1-.438.1-.3-.337L114.6,42.665a2.005,2.005,0,0,0,.236-.842c0-.27-.2-.371-.472-.371a12.726,12.726,0,0,0-1.651.2c-.573.034-1.55.1-2.426.2a.363.363,0,0,0-.337.371c0,.236.2.337.4.337a6.519,6.519,0,0,1,1.382.1.312.312,0,0,1,.236.337m25-14.457c0-2.292,1.685-2.527,3.168-2.629a.491.491,0,1,0-.1-.977H128.581c-.809,0-.809,1.011,0,1.078,2.258.168,4.078.573,4.078,2.763v4.111a2.414,2.414,0,0,1-.944,1.921,9.235,9.235,0,0,1-6,1.786c-7.245,0-10.514-6.268-10.514-12.5,0-5.055,2.561-13.041,10.952-13.041,7.515,0,10.244,4.886,11.154,6.706.3.573,1.011.438,1.011,0v-6c0-.573-.842-.674-1.011,0s-.607,1.146-1.179,1.146a2.5,2.5,0,0,1-1.213-.505,14.374,14.374,0,0,0-8.728-2.561c-6.942,0-15.535,3.471-15.535,14.052,0,10.649,8.054,13.951,15.063,13.951a16.881,16.881,0,0,0,11.222-3.976V28.545ZM120.392,43a1.263,1.263,0,0,1-.168.573c-3.067,6.639-6.066,13.244-9.031,19.916a4.02,4.02,0,0,0-.438,1.483,1,1,0,0,0,1.011,1.045,2.17,2.17,0,0,0,.944-.236,11.277,11.277,0,0,0,4.415-4.044.3.3,0,0,0-.438-.4,13.878,13.878,0,0,1-2.831,2.629c-.236.1-.438.1-.3-.337l9.436-20.961a2.692,2.692,0,0,0,.236-.842c0-.27-.2-.371-.438-.371a12.726,12.726,0,0,0-1.651.2c-.573.034-1.55.1-2.426.2a.363.363,0,0,0-.337.371c0,.236.2.337.4.337a6.519,6.519,0,0,1,1.382.1.312.312,0,0,1,.236.337m11.02,18.871a9.265,9.265,0,0,1-7.178,4.01,3.652,3.652,0,0,1-3.808-3.909c0-6.773,7.481-13.884,12.469-13.884,1.685,0,2.932.64,2.932,2.46,0,2.629-2.292,4.078-6.47,5.324-1.179.337-3.741.91-4.987,1.179a9.111,9.111,0,0,0-1.281,4.145c0,1.921.944,3.067,2.73,3.067,2.056,0,3.976-1.584,5.021-2.831.337-.337.876.1.573.438m-2.258-7.009c2.325-.741,4.482-1.988,4.482-4.078,0-1.078-.539-1.55-1.584-1.55a5.356,5.356,0,0,0-3.4,1.786,21.383,21.383,0,0,0-3.707,4.785,19.993,19.993,0,0,0,4.212-.944m23.353-5.19c.438,0,.876-.236.876-1.011,0-.674-.64-.91-1.247-.91a4.481,4.481,0,0,0-2.46.809,1.173,1.173,0,0,1-1.146.236,4.441,4.441,0,0,0-3.067-.842,7.719,7.719,0,0,0-5.762,3.168,6.017,6.017,0,0,0-1.348,3.842,3.881,3.881,0,0,0,.809,2.426.544.544,0,0,1,.1.3c0,.27-.337.438-.91.607-1.011.337-2.73,1.314-2.73,3.067a3.855,3.855,0,0,0,1.921,2.9,20.031,20.031,0,0,0-3.741,1.483c-1.281.708-2.73,1.82-2.73,3.4,0,1.82,1.55,4.752,7.919,4.752,3.741,0,6.066-1.348,6.976-2.393a3.5,3.5,0,0,0,.809-2.258c0-2.056-2.258-3.976-4.752-5.324-1.584-.91-3.943-1.988-3.943-3.639a1.222,1.222,0,0,1,.573-1.146,2.242,2.242,0,0,1,1.314-.337c.708,0,1.618.236,2.258.236a6.767,6.767,0,0,0,6.5-4.313,7.544,7.544,0,0,0,.64-2.9,18.52,18.52,0,0,0-.2-1.921c0-.438.438-.708,1.314-.708,1.281,0,1.281.472,2.022.472M139.3,72.792c-4.179,0-5.426-2.426-5.426-3.639a2.887,2.887,0,0,1,1.584-2.629,13.6,13.6,0,0,1,2.864-1.483,14.713,14.713,0,0,1,3.067,1.82c2.258,1.584,2.73,2.494,2.73,3.269,0,2.19-3.235,2.662-4.819,2.662m8.29-22.41a8.539,8.539,0,0,1-1.348,4.145c-1.786,2.864-3.168,3.437-4.381,3.437-1.011,0-1.483-.842-1.483-2.056a7.235,7.235,0,0,1,1.247-3.673c1.213-1.921,2.9-3.5,4.415-3.5,1.011,0,1.55.505,1.55,1.651m-4.549-36.125a2.043,2.043,0,0,1-2.123-2.19,2.184,2.184,0,0,1,2.393-2.224,2.552,2.552,0,0,1,2.595,2.8,4.238,4.238,0,0,1-4.078,4.313.345.345,0,0,1-.371-.337.306.306,0,0,1,.27-.337c1.786-.337,2.46-1.483,2.494-2.224a2.835,2.835,0,0,1-1.179.2M163.931,15.5c.2,0,.4-.1.337-.371l-.708-5.055c-.067-.337-.236-.438-.4-.438a.434.434,0,0,0-.371.3,1.34,1.34,0,0,1-1.213.842c-1.146,0-2.19-.842-4.886-.842-3.5,0-8.155,1.516-8.155,6.6s4.078,6.773,7.582,8.054c3.707,1.348,6.639,2.393,6.639,6.234,0,4.313-3.033,5.7-5.9,5.7a8.11,8.11,0,0,1-8.223-6.538c-.1-.4-.27-.539-.573-.539-.27,0-.505.2-.505.64v6.47c0,.371.236.573.438.573a.5.5,0,0,0,.438-.3,1.418,1.418,0,0,1,1.281-.708c1.449,0,3.134,1.752,7.245,1.752,3.639,0,9.739-1.146,9.739-8.256,0-2.831-1.179-6.47-8.054-8.391-4.886-1.348-6.4-3.4-6.4-5.9,0-2.157,1.281-4.246,4.785-4.246a6.9,6.9,0,0,1,6.47,4.179.523.523,0,0,0,.438.236m-1.955,46.37a9.275,9.275,0,0,1-7.212,4.01,3.626,3.626,0,0,1-3.774-3.909c0-6.773,7.481-13.884,12.469-13.884,1.685,0,2.932.64,2.932,2.46,0,2.629-2.359,4.078-6.47,5.324-1.213.337-3.741.91-4.987,1.179a9.125,9.125,0,0,0-1.314,4.145c0,1.921.977,3.067,2.73,3.067,2.056,0,3.976-1.584,5.055-2.831.337-.337.842.1.573.438m-2.258-7.009c2.292-.741,4.448-1.988,4.448-4.078,0-1.078-.505-1.55-1.584-1.55a5.44,5.44,0,0,0-3.4,1.786,21.3,21.3,0,0,0-3.673,4.785,20.45,20.45,0,0,0,4.212-.944" transform="translate(12.179 13.882)"/>
    </g>
    <g id="Group_900" data-name="Group 900" class="cls-2">
      <path id="Path_828" data-name="Path 828" class="cls-3" d="M10,29.169H19.74c.505,0,.64.809.034.809a2.6,2.6,0,0,0-2.864,2.494V49.388c0,1.921.944,2.595,5.122,2.595,4.044,0,7.852-.505,9.739-5.864.135-.438.876-.4.741.27l-1.247,6.672H10.338a.441.441,0,1,1-.1-.876,2.81,2.81,0,0,0,3.033-3.1V32.875c0-2.089-1.213-2.932-3.235-2.932A.39.39,0,1,1,10,29.169M162.522,61.553H10.338V63H162.522Zm0,4.617H10.338v3.269H162.522ZM45.115,53.263c6.976,0,12-4.886,12-12.368a11.648,11.648,0,0,0-12-11.9A11.753,11.753,0,0,0,33.185,40.9c0,7.043,4.718,12.368,11.929,12.368m-8.02-12.334c0-6.133,2.831-10.851,8.054-10.851,4.65,0,8.155,4.482,8.155,10.851,0,7.818-3.168,11.255-8.155,11.255-4.886,0-8.054-4.684-8.054-11.255M58.83,29.135c-.438,0-.573.809.034.809A1.975,1.975,0,0,1,60.987,32.2l-.1,16.782c0,1.82-.64,3.336-2.359,3.336-.573,0-.573.741-.1.741H65.4c.438,0,.438-.741-.067-.741-1.011,0-2.8-.438-2.831-3.336L62.335,31.9S80.229,52.926,80.364,53.061h1.213l.1-20.186c0-1.988.876-3.067,3.033-3.067a.337.337,0,0,0,0-.674H76.893a.337.337,0,0,0,0,.674c.809,0,3.2.168,3.235,2.763l.2,14.693L64.963,29.135H58.83Zm28.139-.1c-.809,0-.64.91-.2.91A2.221,2.221,0,0,1,89.193,32.2V49.219c0,1.82-.4,2.932-2.561,2.932-.539,0-.539.876-.034.876H97.955c4.987,0,13.244-2.393,13.244-12.233C111.2,30.82,104.391,29,97.82,29H86.969Zm5.9,3.3c0-2.157,1.247-2.258,4.179-2.258,5.089,0,10.244,2.527,10.244,10.615,0,7.852-4.313,11.222-10.009,11.222H96.068c-1.516,0-3.2-.3-3.2-3.3Zm33.5,20.927c6.976,0,12-4.886,12-12.368a11.963,11.963,0,0,0-23.926,0c0,7.043,4.718,12.368,11.929,12.368m-8.054-12.334c0-6.133,2.831-10.851,8.054-10.851,4.65,0,8.155,4.482,8.155,10.851,0,7.818-3.168,11.255-8.155,11.255-4.886,0-8.054-4.684-8.054-11.255m21.6-11.795c-.438,0-.573.809.034.809a1.975,1.975,0,0,1,2.123,2.258l-.1,16.782c0,1.82-.64,3.336-2.325,3.336-.573,0-.573.741-.1.741h6.976c.438,0,.438-.741-.067-.741-1.011,0-2.8-.438-2.831-3.336L143.448,31.9s17.894,21.028,18.029,21.163h1.213l.1-20.186c0-1.988.876-3.067,3.033-3.067a.337.337,0,0,0,0-.674h-7.818a.337.337,0,0,0,0,.674c.809,0,3.2.168,3.235,2.763l.2,14.693-15.367-18.13H139.91Z" transform="translate(13.757 59.763)"/>
    </g>
  </g>
</svg>
